<?xml version="1.0" encoding="UTF-8"?>
<svg width="31px" height="31px" viewBox="0 0 31 31" version="1.1" xmlns="http://www.w3.org/2000/svg" xmlns:xlink="http://www.w3.org/1999/xlink">
    <title>编组</title>
    <defs>
        <linearGradient x1="50%" y1="-22.252299%" x2="50%" y2="100%" id="linearGradient-1">
            <stop stop-color="#FFFFFF" offset="0%"></stop>
            <stop stop-color="#ADBADB" offset="100%"></stop>
        </linearGradient>
        <linearGradient x1="91.9294245%" y1="6.51761144%" x2="36.415448%" y2="100%" id="linearGradient-2">
            <stop stop-color="#FFFFFF" offset="0%"></stop>
            <stop stop-color="#FFFFFF" stop-opacity="0.848530376" offset="100%"></stop>
        </linearGradient>
        <path d="M14.3407156,5.02179844 C17.5302727,5.02179844 20.3702974,6.51832449 22.1969304,8.84751717 C22.2215592,8.87892218 22.2474567,8.91281765 22.2746228,8.94920351 C22.6211537,9.41337202 22.5258097,10.0705767 22.0616517,10.4171218 C22.0279724,10.4422672 21.9928118,10.4653654 21.9563604,10.4862913 C21.9563604,10.4862913 21.9563604,10.4862913 21.9563604,10.4862913 C20.8651982,11.1127056 20.013193,11.6018245 19.4003457,11.953648 C19.4003457,11.953648 19.4003457,11.953648 19.4003457,11.953648 C18.747745,12.328293 17.9259624,12.2256815 17.3855292,11.7020609 C17.3545097,11.6720072 17.3245248,11.6443193 17.2955745,11.6189972 C16.5059412,10.9283238 15.472203,10.5098094 14.3407156,10.5098094 C11.8608518,10.5098094 9.85052493,12.5201362 9.85052493,15.0000001 C9.85052493,17.479864 11.8608518,19.4901908 14.3407156,19.4901908 C15.6923574,19.4901908 16.9045111,18.892971 17.7276913,17.9480166 C17.7276913,17.9480166 17.7276913,17.9480166 17.7276913,17.9480166 C18.1079022,17.5115607 18.7430568,17.4035844 19.246134,17.6898834 C19.2949938,17.7176889 19.3402789,17.7434601 19.381989,17.7671969 C20.0331998,18.137794 20.9439836,18.6561114 22.1143408,19.3221492 C22.1143408,19.3221492 22.1143408,19.3221492 22.1143408,19.3221492 C22.6110302,19.6048096 22.7845348,20.2365973 22.5018741,20.7332865 C22.4841794,20.7643794 22.4648845,20.7945337 22.4440557,20.8236203 C22.4391053,20.8305385 22.4342132,20.8373371 22.4293794,20.844016 C20.6165889,23.3487177 17.6689456,24.9782016 14.3407156,24.9782016 C8.82990705,24.9782016 4.36251407,20.5108086 4.36251407,15.0000001 C4.36251407,9.48919152 8.82990705,5.02179844 14.3407156,5.02179844 Z" id="path-3"></path>
        <filter x="-7.1%" y="-6.5%" width="114.2%" height="113.0%" filterUnits="objectBoundingBox" id="filter-4">
            <feGaussianBlur stdDeviation="0.5" in="SourceAlpha" result="shadowBlurInner1"></feGaussianBlur>
            <feOffset dx="0" dy="1" in="shadowBlurInner1" result="shadowOffsetInner1"></feOffset>
            <feComposite in="shadowOffsetInner1" in2="SourceAlpha" operator="arithmetic" k2="-1" k3="1" result="shadowInnerInner1"></feComposite>
            <feColorMatrix values="0 0 0 0 0   0 0 0 0 0   0 0 0 0 0  0 0 0 0.318832291 0" type="matrix" in="shadowInnerInner1"></feColorMatrix>
        </filter>
        <linearGradient x1="100%" y1="0%" x2="0%" y2="100%" id="linearGradient-5">
            <stop stop-color="#FFFFFF" stop-opacity="0" offset="0%"></stop>
            <stop stop-color="#FFFFFF" stop-opacity="0.775315505" offset="100%"></stop>
        </linearGradient>
        <circle id="path-6" cx="25.6819043" cy="22.9337832" r="2.04441833"></circle>
        <filter x="-31.8%" y="-31.8%" width="163.6%" height="163.6%" filterUnits="objectBoundingBox" id="filter-7">
            <feGaussianBlur stdDeviation="0.5" in="SourceAlpha" result="shadowBlurInner1"></feGaussianBlur>
            <feOffset dx="0" dy="1" in="shadowBlurInner1" result="shadowOffsetInner1"></feOffset>
            <feComposite in="shadowOffsetInner1" in2="SourceAlpha" operator="arithmetic" k2="-1" k3="1" result="shadowInnerInner1"></feComposite>
            <feColorMatrix values="0 0 0 0 0   0 0 0 0 0   0 0 0 0 0  0 0 0 0.251394845 0" type="matrix" in="shadowInnerInner1"></feColorMatrix>
        </filter>
    </defs>
    <g id="页面-1" stroke="none" stroke-width="1" fill="none" fill-rule="evenodd">
        <g id="logo" transform="translate(-30.000000, -21.000000)">
            <g id="编组" transform="translate(30.500000, 21.500000)">
                <rect id="矩形" fill="url(#linearGradient-1)" x="0" y="0" width="30" height="30" rx="7"></rect>
                <g id="路径" fill-rule="nonzero">
                    <use fill="#306CF7" xlink:href="#path-3"></use>
                    <use fill="black" fill-opacity="1" filter="url(#filter-4)" xlink:href="#path-3"></use>
                    <path stroke="url(#linearGradient-2)" stroke-width="0.3" d="M14.3407156,4.87179844 C17.5781791,4.87179844 20.4608865,6.39076527 22.3169474,8.75753995 C22.5497485,9.06806416 22.6399525,9.40351658 22.6135708,9.7096179 C22.5853105,10.0375147 22.4237151,10.3339969 22.1513907,10.5373171 C21.0494523,11.1798888 20.2608835,11.6325907 19.6660883,11.9740507 C19.225194,12.2271594 18.7896496,12.3282253 18.3926219,12.3026811 C17.9668904,12.2752901 17.5836862,12.1029119 17.2864567,11.814687 C16.4354888,11.0661258 15.4357318,10.6598094 14.3407156,10.6598094 C13.1422051,10.6598094 12.0571574,11.1456018 11.2717373,11.9310218 C10.4863173,12.7164418 10.0005249,13.8014895 10.0005249,15.0000001 C10.0005249,16.1985107 10.4863173,17.2835583 11.2717374,18.0689784 C12.0571574,18.8543984 13.1422051,19.3401908 14.3407156,19.3401908 C15.5655549,19.3401908 16.6718886,18.8328171 17.4564874,18.0216857 C17.7411205,17.6998563 18.0516626,17.5092877 18.3566565,17.4308836 C18.6940109,17.3441607 19.0270179,17.3925961 19.3203249,17.5595157 L19.3203249,17.5595157 L21.875779,19.0137974 C22.2966906,19.2533335 22.5555769,19.5382148 22.682215,19.8255878 C22.8304,20.1618562 22.8037383,20.5061248 22.6322417,20.8074773 C20.7101616,23.4754258 17.7182393,25.1282016 14.3407156,25.1282016 C11.54389,25.1282016 9.01183959,23.994564 7.17899561,22.1617201 C5.34615163,20.3288761 4.21251407,17.7968257 4.21251407,15.0000001 C4.21251407,12.2031744 5.34615165,9.67112401 7.17899566,7.83828 C9.01183964,6.00543601 11.54389,4.87179844 14.3407156,4.87179844 Z"></path>
                </g>
                <g id="椭圆形">
                    <use fill="#306CF7" fill-rule="evenodd" xlink:href="#path-6"></use>
                    <use fill="black" fill-opacity="1" filter="url(#filter-7)" xlink:href="#path-6"></use>
                    <circle stroke="url(#linearGradient-5)" stroke-width="0.3" cx="25.6819043" cy="22.9337832" r="2.19441833"></circle>
                </g>
            </g>
        </g>
    </g>
</svg>